<svg width="14" height="8" viewBox="0 0 14 8" fill="none" xmlns="http://www.w3.org/2000/svg">
<path d="M7.65076 5.28338C7.56554 5.3693 7.46415 5.43749 7.35245 5.48403C7.24075 5.53057 7.12093 5.55453 6.99992 5.55453C6.87891 5.55453 6.7591 5.53057 6.64739 5.48403C6.53569 5.43749 6.4343 5.3693 6.34909 5.28338L2.15075 1.07588C2.06553 0.989962 1.96415 0.921767 1.85244 0.875229C1.74074 0.828691 1.62092 0.804731 1.49991 0.804731C1.3789 0.804731 1.25909 0.828691 1.14738 0.875229C1.03568 0.921767 0.934296 0.989962 0.84908 1.07588C0.678349 1.24763 0.58252 1.47996 0.58252 1.72213C0.58252 1.9643 0.678349 2.19663 0.84908 2.36838L5.05659 6.57588C5.57221 7.09087 6.27117 7.38013 6.99992 7.38013C7.72867 7.38013 8.42763 7.09087 8.94326 6.57588L13.1508 2.36838C13.3201 2.19764 13.4156 1.96719 13.4166 1.72671C13.4173 1.60607 13.3942 1.48648 13.3486 1.3748C13.3029 1.26311 13.2357 1.16153 13.1508 1.07588C13.0655 0.989962 12.9642 0.921767 12.8525 0.875229C12.7408 0.828691 12.6209 0.804731 12.4999 0.804731C12.3789 0.804731 12.2591 0.828691 12.1474 0.875229C12.0357 0.921767 11.9343 0.989962 11.8491 1.07588L7.65076 5.28338Z" fill="#FD9222"/>
</svg>
